# xmcd CD database file
#
# Track frame offsets:
#	150
#	19667
#	42827
#	55330
#	71805
#	86435
#	101435
#	116670
#	130475
#	145545
#	161062
#	175335
#	185322
#	198120
#	211200
#	225782
#	236585
#	249467
#	263632
#	277695
#
# Disc length: 3957 seconds
#
# Revision: 2
# Processed by: cddbd v1.5.2PL0 Copyright (c) Steve Scherf et al.
# Submitted via: CDex 1.51
#
DISCID=070f7314
DTITLE=Michal Prokop - Blues In Soul
DYEAR=1967
DGENRE=Czech Pop
TTITLE0=I Got My Mojo Working
TTITLE1=Why Am I Treated So Bad?
TTITLE2=Around And Around
TTITLE3=Nobody Knows You When You're Down And Out
TTITLE4=Blues In Soul
TTITLE5=What'd I Say
TTITLE6=I Believe To My Soul
TTITLE7=Keep A Light In The Window
TTITLE8=If You Need Me
TTITLE9=Some Day Baby
TTITLE10=Hold On I¨m Comin'
TTITLE11=In The Midnight Hour
TTITLE12=Ton Of Joy
TTITLE13=Mojo Mama
TTITLE14=Don't Set Me Free
TTITLE15=Respect
TTITLE16=Work Song
TTITLE17=My Days Are Numbered
TTITLE18=Keep A Light In The Window
TTITLE19=Georgia On My Mind
EXTD=Original - Digitally Remastered 1995 YEAR: 1967
EXTT0=
EXTT1=
EXTT2=
EXTT3=
EXTT4=
EXTT5=
EXTT6=
EXTT7=
EXTT8=
EXTT9=
EXTT10=
EXTT11=
EXTT12=
EXTT13=
EXTT14=
EXTT15=
EXTT16=
EXTT17=
EXTT18=
EXTT19=
PLAYORDER=
